# Blender v2.66 (sub 0) OBJ File: 'Catapult_Tower_4_ExportRdy.blend'
# www.blender.org
o RotationWheel_Circle.003
v 2.300000 19.804943 0.951056
v 2.300000 20.192419 0.996917
v 2.300000 20.567951 0.891006
v 2.300000 20.874367 0.649448
v 2.300000 21.065016 0.309017
v 2.300000 21.110878 -0.078459
v 2.300000 21.004967 -0.453991
v 2.300000 20.763409 -0.760406
v 2.300000 20.422977 -0.951056
v 2.300000 20.035501 -0.996917
v 2.300000 19.659969 -0.891007
v 2.300000 19.353554 -0.649448
v 2.300000 19.162903 -0.309017
v 2.300000 19.117043 0.078459
v 2.300000 19.222954 0.453991
v 2.300000 19.464512 0.760406
v 2.260000 19.514919 1.069664
v 2.260000 20.872957 0.962784
v 2.260000 21.064468 0.811810
v 2.260000 21.183624 0.599040
v 2.260000 21.076744 -0.758998
v 2.260000 20.925770 -0.950508
v 2.260000 20.713001 -1.069664
v 2.260000 19.354963 -0.962784
v 2.260000 19.163452 -0.811810
v 2.260000 19.044296 -0.599041
v 2.260000 19.151176 0.758998
v 2.260000 19.302151 0.950508
v 2.300000 20.113960 -0.000000
v 2.100000 19.804943 0.951056
v 2.100000 20.192419 0.996917
v 2.100000 20.567951 0.891006
v 2.100000 20.874367 0.649448
v 2.100000 21.065016 0.309017
v 2.100000 21.110878 -0.078459
v 2.100000 21.004967 -0.453991
v 2.100000 20.763409 -0.760406
v 2.100000 20.422977 -0.951056
v 2.100000 20.035501 -0.996917
v 2.100000 19.659969 -0.891007
v 2.100000 19.353554 -0.649448
v 2.100000 19.162903 -0.309017
v 2.100000 19.117043 0.078459
v 2.100000 19.222954 0.453991
v 2.100000 19.464512 0.760406
v 2.140000 19.514919 1.069664
v 2.140000 20.872957 0.962784
v 2.140000 21.064468 0.811810
v 2.140000 21.183624 0.599040
v 2.140000 21.076744 -0.758998
v 2.140000 20.925770 -0.950508
v 2.140000 20.713001 -1.069664
v 2.140000 19.354963 -0.962784
v 2.140000 19.163452 -0.811810
v 2.140000 19.044296 -0.599041
v 2.140000 19.151176 0.758998
v 2.140000 19.302151 0.950508
v 2.100000 20.113960 -0.000000
vt 0.910122 0.649323
vt 0.814458 0.792204
vt 0.953265 0.781786
vt 0.814459 0.169029
vt 0.910123 0.311911
vt 0.953266 0.179448
vt 0.191284 0.169029
vt 0.334165 0.073365
vt 0.201702 0.030221
vt 0.671578 0.073365
vt 0.804041 0.030222
vt 0.191283 0.792204
vt 0.095619 0.649323
vt 0.052476 0.781786
vt 0.095619 0.311910
vt 0.052476 0.179447
vt 0.671577 0.887868
vt 0.804040 0.931012
vt 0.334165 0.887868
vt 0.201702 0.931011
vt 0.502871 0.480617
vt 0.062058 0.480617
vt 0.502871 0.921429
vt 0.502871 0.039804
vt 0.943683 0.480617
vt 0.112400 0.090145
vt 0.893343 0.090145
vt 0.893342 0.871088
vt 0.112400 0.871088
vt 0.342795 0.993813
vt 0.394266 0.993813
vt 0.394266 0.963711
vt 0.041399 0.993813
vt 0.092863 0.993813
vt 0.092866 0.963711
vt 0.185658 0.993813
vt 0.185659 0.963711
vt 0.144330 0.963711
vt 0.685603 0.993813
vt 0.685602 0.963711
vt 0.644258 0.963711
vt 0.935584 0.993813
vt 0.935583 0.963711
vt 0.894244 0.963711
vt 0.467774 0.993813
vt 0.467774 0.963711
vt 0.435602 0.963711
vt 0.144328 0.993813
vt 0.791294 0.993813
vt 0.842770 0.993813
vt 0.842768 0.963711
vt 0.291324 0.993813
vt 0.291325 0.963711
vt 0.249992 0.963711
vt 0.791292 0.963711
vt 0.749953 0.963711
vt 0.499949 0.993813
vt 0.499949 0.963711
vt 0.967757 0.993813
vt 0.967756 0.963711
vt 0.894246 0.993813
vt 0.717779 0.993813
vt 0.717778 0.963711
vt 0.999930 0.993813
vt 0.999929 0.963711
vt 0.541292 0.993813
vt 0.592775 0.993813
vt 0.592774 0.963711
vt 0.435602 0.993813
vt 0.541291 0.963711
vt 0.749954 0.993813
vt 0.217824 0.993813
vt 0.217825 0.963711
vt 0.644258 0.993813
vt 0.342795 0.963711
vt 0.041402 0.963711
vt 0.000072 0.963711
vt 0.249991 0.993813
vt 0.000070 0.993813
vn 0.986953 0.099679 0.126442
vn 0.986953 -0.078672 0.140477
vn 0.986953 -0.140478 -0.078672
vn 0.986953 -0.126441 0.099678
vn 0.986953 0.078671 -0.140478
vn 0.986953 -0.099679 -0.126442
vn 0.986953 0.140478 0.078671
vn 0.986953 0.126442 -0.099679
vn 1.000000 -0.000000 0.000000
vn 1.000000 -0.000001 -0.000000
vn -0.986953 0.099679 0.126443
vn -0.986953 -0.078671 0.140477
vn -0.986953 -0.140478 -0.078672
vn -0.986953 -0.126441 0.099679
vn -0.986953 0.078672 -0.140478
vn -0.986953 -0.099679 -0.126443
vn -0.986953 0.140478 0.078671
vn -0.986953 0.126442 -0.099679
vn -1.000000 0.000000 0.000000
vn -1.000000 0.000000 0.000001
vn 0.000000 -0.271440 -0.962455
vn 0.000000 0.993068 0.117541
vn -0.000000 0.973409 0.229072
vn 0.000000 -0.973409 -0.229072
vn 0.000000 -0.229074 0.973409
vn 0.000000 -0.619091 -0.785319
vn 0.000000 0.962455 -0.271442
vn 0.000000 -0.117537 0.993068
vn 0.000000 -0.378527 -0.925590
vn -0.000000 0.378528 0.925590
vn 0.000000 -0.872497 -0.488619
vn -0.000000 0.619091 0.785319
vn -0.000000 0.271440 0.962455
vn 0.000000 -0.785316 0.619095
vn -0.000000 0.872497 0.488619
vn -0.000000 -0.993069 -0.117536
vn 0.000000 0.229074 -0.973409
vn 0.000000 -0.925591 0.378525
vn 0.000000 -0.488622 0.872495
vn 0.000000 0.785317 -0.619094
vn 0.000000 -0.962455 0.271442
vn 0.000000 0.117537 -0.993068
vn 0.000000 0.925589 -0.378530
vn 0.000000 0.488622 -0.872495
vn 0.986953 0.099678 0.126442
vn 0.986953 -0.078671 0.140477
vn 0.986953 -0.140478 -0.078671
vn 0.986953 0.078672 -0.140478
vn 0.986953 -0.099678 -0.126442
vn -0.986953 0.099678 0.126442
vn -0.986953 -0.140479 -0.078672
vn -0.986953 -0.126441 0.099678
vn -0.986953 -0.099678 -0.126442
s off
f 3/1/1 4/2/1 18/3/1
f 16/4/2 1/5/2 17/6/2
f 12/7/3 13/8/3 26/9/3
f 15/10/4 16/4/4 27/11/4
f 8/12/5 9/13/5 23/14/5
f 11/15/6 12/7/6 24/16/6
f 4/2/7 5/17/7 20/18/7
f 7/19/8 8/12/8 21/20/8
f 4/2/9 3/1/9 29/21/9
f 1/5/10 16/4/10 29/21/10
f 10/22/9 29/21/9 11/15/9
f 5/17/9 4/2/9 29/21/9
f 12/7/9 11/15/9 29/21/9
f 5/17/9 29/21/9 6/23/9
f 13/8/9 12/7/9 29/21/9
f 6/23/9 29/21/9 7/19/9
f 13/8/9 29/21/9 14/24/9
f 8/12/9 7/19/9 29/21/9
f 1/5/9 29/21/9 2/25/9
f 14/24/9 29/21/9 15/10/9
f 9/13/9 8/12/9 29/21/9
f 2/25/9 29/21/9 3/1/9
f 16/4/9 15/10/9 29/21/9
f 9/13/10 29/21/10 10/22/10
f 32/8/11 47/9/11 48/26/11
f 45/4/12 57/27/12 30/10/12
f 41/2/13 54/28/13 42/1/13
f 44/5/14 56/6/14 57/27/14
f 37/12/15 51/29/15 38/19/15
f 40/17/16 53/18/16 54/28/16
f 33/7/17 48/26/17 34/15/17
f 36/13/18 50/14/18 51/29/18
f 33/7/19 58/21/19 32/8/19
f 30/10/19 58/21/19 45/4/19
f 39/23/19 40/17/19 58/21/19
f 34/15/19 58/21/19 33/7/19
f 41/2/19 58/21/19 40/17/19
f 34/15/19 35/22/19 58/21/19
f 42/1/19 58/21/19 41/2/19
f 35/22/20 36/13/20 58/21/20
f 42/1/19 43/25/19 58/21/19
f 37/12/19 58/21/19 36/13/19
f 30/10/19 31/24/19 58/21/19
f 43/25/19 44/5/19 58/21/19
f 38/19/19 58/21/19 37/12/19
f 31/24/19 32/8/19 58/21/19
f 45/4/20 58/21/20 44/5/20
f 38/19/19 39/23/19 58/21/19
f 10/30/21 11/31/21 40/32/21
f 5/33/22 6/34/22 35/35/22
f 21/36/23 50/37/23 36/38/23
f 27/39/24 56/40/24 44/41/24
f 18/42/25 47/43/25 32/44/25
f 25/45/26 54/46/26 53/47/26
f 6/34/27 7/48/27 36/38/27
f 1/49/28 2/50/28 31/51/28
f 9/52/29 38/53/29 52/54/29
f 1/49/30 30/55/30 46/56/30
f 26/57/31 55/58/31 54/46/31
f 19/59/32 48/60/32 47/43/32
f 2/50/33 3/61/33 32/44/33
f 28/62/34 57/63/34 56/40/34
f 20/64/35 49/65/35 48/60/35
f 13/66/36 14/67/36 43/68/36
f 24/69/37 53/47/37 40/32/37
f 13/66/38 42/70/38 55/58/38
f 17/71/39 46/56/39 57/63/39
f 22/72/40 51/73/40 50/37/40
f 14/67/41 15/74/41 44/41/41
f 9/52/42 10/30/42 39/75/42
f 5/33/43 34/76/43 49/77/43
f 23/78/44 52/54/44 51/73/44
f 4/2/45 19/28/45 18/3/45
f 28/27/46 16/4/46 17/6/46
f 25/26/47 12/7/47 26/9/47
f 16/4/4 28/27/4 27/11/4
f 22/29/48 8/12/48 23/14/48
f 12/7/49 25/26/49 24/16/49
f 19/28/7 4/2/7 20/18/7
f 8/12/8 22/29/8 21/20/8
f 33/7/50 32/8/50 48/26/50
f 57/27/12 46/11/12 30/10/12
f 54/28/51 55/3/51 42/1/51
f 45/4/52 44/5/52 57/27/52
f 51/29/15 52/20/15 38/19/15
f 41/2/53 40/17/53 54/28/53
f 48/26/17 49/16/17 34/15/17
f 37/12/18 36/13/18 51/29/18
f 39/75/21 10/30/21 40/32/21
f 34/76/22 5/33/22 35/35/22
f 7/48/23 21/36/23 36/38/23
f 15/74/24 27/39/24 44/41/24
f 3/61/25 18/42/25 32/44/25
f 24/69/26 25/45/26 53/47/26
f 35/35/27 6/34/27 36/38/27
f 30/55/28 1/49/28 31/51/28
f 23/78/29 9/52/29 52/54/29
f 17/71/30 1/49/30 46/56/30
f 25/45/31 26/57/31 54/46/31
f 18/42/32 19/59/32 47/43/32
f 31/51/33 2/50/33 32/44/33
f 27/39/34 28/62/34 56/40/34
f 19/59/35 20/64/35 48/60/35
f 42/70/36 13/66/36 43/68/36
f 11/31/37 24/69/37 40/32/37
f 26/57/38 13/66/38 55/58/38
f 28/62/39 17/71/39 57/63/39
f 21/36/40 22/72/40 50/37/40
f 43/68/41 14/67/41 44/41/41
f 38/53/42 9/52/42 39/75/42
f 20/79/43 5/33/43 49/77/43
f 22/72/44 23/78/44 51/73/44
